<?xml version="1.0" encoding="UTF-8" standalone="no"?>
<!-- Created with Inkscape (http://www.inkscape.org/) -->

<svg
   xmlns:dc="http://purl.org/dc/elements/1.1/"
   xmlns:cc="http://creativecommons.org/ns#"
   xmlns:rdf="http://www.w3.org/1999/02/22-rdf-syntax-ns#"
   xmlns:svg="http://www.w3.org/2000/svg"
   xmlns="http://www.w3.org/2000/svg"
   xmlns:sodipodi="http://sodipodi.sourceforge.net/DTD/sodipodi-0.dtd"
   xmlns:inkscape="http://www.inkscape.org/namespaces/inkscape"
   width="246.4375"
   height="263.87762"
   id="svg2"
   version="1.1"
   inkscape:version="0.48.5 r10040"
   sodipodi:docname="partial_specialization.svg">
  <sodipodi:namedview
     id="base"
     pagecolor="#ffffff"
     bordercolor="#666666"
     borderopacity="1.0"
     inkscape:pageopacity="0.0"
     inkscape:pageshadow="2"
     inkscape:zoom="2.8"
     inkscape:cx="116.51848"
     inkscape:cy="45.661926"
     inkscape:document-units="px"
     inkscape:current-layer="layer1"
     showgrid="true"
     fit-margin-top="5"
     fit-margin-left="5"
     fit-margin-right="5"
     fit-margin-bottom="5"
     units="px"
     inkscape:window-width="1276"
     inkscape:window-height="755"
     inkscape:window-x="4"
     inkscape:window-y="0"
     inkscape:window-maximized="1">
    <inkscape:grid
       snapvisiblegridlinesonly="true"
       enabled="true"
       visible="true"
       empspacing="5"
       id="grid3777"
       type="xygrid" />
  </sodipodi:namedview>
  <defs
     id="defs4">
    <marker
       style="overflow:visible"
       id="Arrow2Mstart"
       refX="0"
       refY="0"
       orient="auto"
       inkscape:stockid="Arrow2Mstart">
      <path
         inkscape:connector-curvature="0"
         transform="scale(0.6,0.6)"
         d="M 8.7185878,4.0337352 -2.2072895,0.01601326 8.7185884,-4.0017078 c -1.7454984,2.3720609 -1.7354408,5.6174519 -6e-7,8.035443 z"
         style="font-size:12px;fill-rule:evenodd;stroke-width:0.625;stroke-linejoin:round"
         id="path3808" />
    </marker>
    <marker
       style="overflow:visible"
       id="Arrow2Mend"
       refX="0"
       refY="0"
       orient="auto"
       inkscape:stockid="Arrow2Mend">
      <path
         inkscape:connector-curvature="0"
         transform="scale(-0.6,-0.6)"
         d="M 8.7185878,4.0337352 -2.2072895,0.01601326 8.7185884,-4.0017078 c -1.7454984,2.3720609 -1.7354408,5.6174519 -6e-7,8.035443 z"
         style="font-size:12px;fill-rule:evenodd;stroke-width:0.625;stroke-linejoin:round"
         id="path3811" />
    </marker>
    <marker
       style="overflow:visible"
       id="Arrow1Send"
       refX="0"
       refY="0"
       orient="auto"
       inkscape:stockid="Arrow1Send">
      <path
         inkscape:connector-curvature="0"
         transform="matrix(-0.2,0,0,-0.2,-1.2,0)"
         style="fill-rule:evenodd;stroke:#000000;stroke-width:1pt;marker-start:none"
         d="M 0,0 5,-5 -12.5,0 5,5 0,0 z"
         id="path3799" />
    </marker>
    <marker
       style="overflow:visible"
       id="Arrow1Mend"
       refX="0"
       refY="0"
       orient="auto"
       inkscape:stockid="Arrow1Mend">
      <path
         inkscape:connector-curvature="0"
         transform="matrix(-0.4,0,0,-0.4,-4,0)"
         style="fill-rule:evenodd;stroke:#000000;stroke-width:1pt;marker-start:none"
         d="M 0,0 5,-5 -12.5,0 5,5 0,0 z"
         id="path3793" />
    </marker>
    <marker
       style="overflow:visible"
       id="Arrow2Lend"
       refX="0"
       refY="0"
       orient="auto"
       inkscape:stockid="Arrow2Lend">
      <path
         inkscape:connector-curvature="0"
         transform="matrix(-1.1,0,0,-1.1,-1.1,0)"
         d="M 8.7185878,4.0337352 -2.2072895,0.01601326 8.7185884,-4.0017078 c -1.7454984,2.3720609 -1.7354408,5.6174519 -6e-7,8.035443 z"
         style="font-size:12px;fill-rule:evenodd;stroke-width:0.625;stroke-linejoin:round"
         id="path3805" />
    </marker>
    <clipPath
       id="cp21">
      <polygon
         id="polygon1999"
         points="88,204 88,190 73,190 73,190 73,204 " />
    </clipPath>
    <clipPath
       id="cp19">
      <polygon
         id="polygon1977"
         points="88,204 88,190 73,190 73,190 73,204 " />
    </clipPath>
    <clipPath
       id="cp17">
      <polygon
         id="polygon1955"
         points="88,204 88,190 73,190 73,190 73,204 " />
    </clipPath>
    <clipPath
       id="cp15">
      <polygon
         id="polygon1931"
         points="95,204 95,190 74,190 74,190 74,204 " />
    </clipPath>
    <clipPath
       id="cp13">
      <polygon
         id="polygon1907"
         points="95,204 95,190 74,190 74,190 74,204 " />
    </clipPath>
    <clipPath
       id="cp11">
      <polygon
         id="polygon1889"
         points="88,203.563 88,190 73,190 73,190 73,203.563 " />
    </clipPath>
    <clipPath
       id="cp10">
      <polygon
         id="polygon1874"
         points="434,364 434,13 74,13 74,13 74,364 " />
    </clipPath>
    <clipPath
       id="cp9">
      <polygon
         id="polygon1867"
         points="88,203.563 88,190 73,190 73,190 73,203.563 " />
    </clipPath>
    <clipPath
       id="cp7">
      <polygon
         id="polygon1845"
         points="88,203.563 88,190 73,190 73,190 73,203.563 " />
    </clipPath>
    <clipPath
       id="cp5">
      <polygon
         id="polygon1821"
         points="95,203.563 95,190 73,190 73,190 73,203.563 " />
    </clipPath>
    <clipPath
       id="cp3">
      <polygon
         id="polygon1797"
         points="95,203.563 95,190 73,190 73,190 73,203.563 " />
    </clipPath>
    <inkscape:perspective
       sodipodi:type="inkscape:persp3d"
       inkscape:vp_x="0 : 230 : 1"
       inkscape:vp_y="0 : 1000 : 0"
       inkscape:vp_z="720 : 230 : 1"
       inkscape:persp3d-origin="360 : 153.33333 : 1"
       id="perspective289" />
    <marker
       style="overflow:visible"
       id="Arrow2MstartH"
       refX="0"
       refY="0"
       orient="auto"
       inkscape:stockid="Arrow2MstartH">
      <path
         inkscape:connector-curvature="0"
         transform="scale(0.6,0.6)"
         d="M 8.7185878,4.0337352 -2.2072895,0.01601326 8.7185884,-4.0017078 c -1.7454984,2.3720609 -1.7354408,5.6174519 -6e-7,8.035443 z"
         style="stroke-linejoin:round;font-size:12px;fill-rule:evenodd;stroke:#585858;stroke-width:0.625;fill:#585858"
         id="path4389" />
    </marker>
    <marker
       style="overflow:visible"
       id="Arrow2MendC"
       refX="0"
       refY="0"
       orient="auto"
       inkscape:stockid="Arrow2MendC">
      <path
         inkscape:connector-curvature="0"
         transform="scale(-0.6,-0.6)"
         d="M 8.7185878,4.0337352 -2.2072895,0.01601326 8.7185884,-4.0017078 c -1.7454984,2.3720609 -1.7354408,5.6174519 -6e-7,8.035443 z"
         style="stroke-linejoin:round;font-size:12px;fill-rule:evenodd;stroke:#585858;stroke-width:0.625;fill:#585858"
         id="path4392" />
    </marker>
  </defs>
  <metadata
     id="metadata7">
    <rdf:RDF>
      <cc:Work
         rdf:about="">
        <dc:format>image/svg+xml</dc:format>
        <dc:type
           rdf:resource="http://purl.org/dc/dcmitype/StillImage" />
        <dc:title />
      </cc:Work>
    </rdf:RDF>
  </metadata>
  <g
     transform="translate(-100.53125,-143.05987)"
     id="layer1"
     inkscape:groupmode="layer"
     inkscape:label="Layer 1">
    <path
       transform="translate(100.53125,143.05987)"
       inkscape:connector-curvature="0"
       id="path3162"
       d="m 0,258.87762 245,0"
       style="stroke-linejoin:miter;marker-end:url(#Arrow2MendC);stroke-opacity:1;marker-start:url(#Arrow2MstartH);stroke:#585858;stroke-linecap:butt;stroke-miterlimit:4;stroke-dasharray:none;stroke-width:2.3;fill:none" />
    <rect
       ry="5"
       rx="5"
       y="237.46425"
       x="161.54729"
       height="43.436558"
       width="45.456863"
       id="rect2993"
       style="fill:none;stroke:#585858;stroke-width:3;stroke-linecap:butt;stroke-linejoin:miter;stroke-miterlimit:4;stroke-opacity:1;stroke-dasharray:none" />
    <text
       sodipodi:linespacing="125%"
       id="text2985"
       y="268.51361"
       x="176.7767"
       style="font-size:28px;font-style:normal;font-variant:normal;font-weight:normal;font-stretch:normal;line-height:125%;letter-spacing:0px;word-spacing:0px;fill:#000000;fill-opacity:1;stroke:none;font-family:Franklin Gothic Book;-inkscape-font-specification:Franklin Gothic Book"
       xml:space="preserve"><tspan
         y="268.51361"
         x="176.7767"
         id="tspan2987"
         sodipodi:role="line">A</tspan></text>
    <g
       transform="translate(-57.578695,137.41052)"
       id="g3767">
      <text
         xml:space="preserve"
         style="font-size:28px;font-style:normal;font-variant:normal;font-weight:normal;font-stretch:normal;line-height:125%;letter-spacing:0px;word-spacing:0px;fill:#000000;fill-opacity:1;stroke:none;font-family:Franklin Gothic Book;-inkscape-font-specification:Franklin Gothic Book"
         x="311.12698"
         y="131.10307"
         id="text2989"
         sodipodi:linespacing="125%"><tspan
           sodipodi:role="line"
           id="tspan2991"
           x="311.12698"
           y="131.10307">B</tspan></text>
      <rect
         ry="5"
         rx="5"
         y="100.05374"
         x="297.45618"
         height="43.436558"
         width="45.456863"
         id="use3763"
         style="fill:none;stroke:#585858;stroke-width:3;stroke-linecap:butt;stroke-linejoin:miter;stroke-miterlimit:4;stroke-opacity:1;stroke-dasharray:none" />
    </g>
    <path
       inkscape:connector-curvature="0"
       id="path3779"
       d="m 184.27571,199.33717 0,30.27752"
       style="fill:none;stroke:#000000;stroke-width:2;stroke-linecap:butt;stroke-linejoin:miter;stroke-miterlimit:4;stroke-opacity:1;stroke-dasharray:none;marker-end:url(#Arrow1Mend)" />
    <g
       id="use4413"
       transform="translate(-1.0101525,49.497372)">
      <rect
         ry="5"
         rx="5"
         y="100.05374"
         x="162.55743"
         height="43.436558"
         width="45.456863"
         id="rect4417"
         style="fill:none;stroke:#585858;stroke-width:3;stroke-linecap:butt;stroke-linejoin:miter;stroke-miterlimit:4;stroke-opacity:1;stroke-dasharray:none" />
      <text
         sodipodi:linespacing="125%"
         id="text4419"
         y="131.10307"
         x="177.78685"
         style="font-size:28px;font-style:normal;font-variant:normal;font-weight:normal;font-stretch:normal;line-height:125%;letter-spacing:0px;word-spacing:0px;fill:#000000;fill-opacity:1;stroke:none;font-family:Franklin Gothic Book;-inkscape-font-specification:Franklin Gothic Book"
         xml:space="preserve"><tspan
           y="131.10307"
           x="177.78685"
           id="tspan4421"
           sodipodi:role="line">A</tspan></text>
    </g>
    <path
       transform="matrix(1.1059189,0,0,1.2291977,-57.291785,-35.50942)"
       sodipodi:open="true"
       sodipodi:end="4.712389"
       sodipodi:start="3.1415927"
       d="m 287.89347,215.4508 c 0,-23.7104 15.15074,-42.93148 33.84011,-42.93148"
       sodipodi:ry="42.931484"
       sodipodi:rx="33.840111"
       sodipodi:cy="215.45081"
       sodipodi:cx="321.73358"
       id="path4807"
       style="fill:none;stroke:#000000;stroke-width:1.71536875;stroke-linejoin:round;stroke-miterlimit:4;stroke-opacity:1;stroke-dasharray:5.14610616, 1.71536872;stroke-dashoffset:0;marker-start:url(#Arrow2Mstart);marker-end:none"
       sodipodi:type="arc" />
    <g
       id="text5377"
       style="font-size:18px;font-style:normal;font-variant:normal;font-weight:normal;font-stretch:normal;line-height:125%;letter-spacing:0px;word-spacing:0px;fill:#000000;fill-opacity:1;stroke:none;font-family:Franklin Gothic Book;-inkscape-font-specification:Franklin Gothic Book" />
    <text
       sodipodi:linespacing="125%"
       id="text5397"
       y="389.01685"
       x="169.62852"
       style="font-size:28px;font-style:normal;font-variant:normal;font-weight:normal;font-stretch:normal;line-height:125%;letter-spacing:0px;word-spacing:0px;fill:#000000;fill-opacity:1;stroke:none;font-family:Franklin Gothic Book;-inkscape-font-specification:Franklin Gothic Book"
       xml:space="preserve"><tspan
         y="389.01685"
         x="169.62852"
         id="tspan5399"
         sodipodi:role="line">A</tspan></text>
    <text
       xml:space="preserve"
       style="font-size:28px;font-style:normal;font-variant:normal;font-weight:normal;font-stretch:normal;line-height:125%;letter-spacing:0px;word-spacing:0px;fill:#000000;fill-opacity:1;stroke:none;font-family:Franklin Gothic Book;-inkscape-font-specification:Franklin Gothic Book"
       x="261.31406"
       y="389.01685"
       id="text5427"
       sodipodi:linespacing="125%"><tspan
         sodipodi:role="line"
         id="tspan5429"
         x="261.31406"
         y="389.01685">B</tspan></text>
    <path
       sodipodi:nodetypes="cc"
       style="fill:none;stroke:#000000;stroke-width:2;stroke-linecap:butt;stroke-linejoin:miter;stroke-miterlimit:4;stroke-opacity:1;stroke-dasharray:none;marker-end:url(#Arrow1Mend)"
       d="m 184.27571,287.25025 -8.08122,63.61255"
       id="use5512"
       inkscape:connector-curvature="0" />
    <path
       inkscape:connector-curvature="0"
       id="use5516"
       d="m 264.27571,287.25025 8.08122,63.61255"
       style="fill:none;stroke:#000000;stroke-width:2;stroke-linecap:butt;stroke-linejoin:miter;stroke-miterlimit:4;stroke-opacity:1;stroke-dasharray:none;marker-end:url(#Arrow1Mend)"
       sodipodi:nodetypes="cc" />
    <g
       transform="matrix(1.364137,0,0,1.406645,369.4853,-113.19034)"
       id="g8871"
       clip-path="url(#cp3)">
      <clipPath
         id="clipPath9201">
        <polygon
           points="87,126 73,126 73,126 73,140 87,140 "
           id="polygon8874" />
      </clipPath>
      <text
         x="74"
         y="137"
         id="text8876"
         style="font-size:10px;fill:#000000;font-family:SVGTimes"
         font-size="10px">-</text>
      <text
         x="80.5"
         y="137"
         id="text8878"
         style="font-size:10px;fill:#000000;font-family:Times New Roman"
         font-size="10px">3</text>
    </g>
    <g
       transform="matrix(1.364137,0,0,1.406645,447.79768,-113.19034)"
       id="g8895"
       clip-path="url(#cp5)">
      <clipPath
         id="clipPath9216">
        <polygon
           points="87,126 73,126 73,126 73,140 87,140 "
           id="polygon8898" />
      </clipPath>
      <text
         x="74"
         y="137"
         id="text8900"
         style="font-size:10px;fill:#000000;font-family:SVGTimes"
         font-size="10px">-</text>
      <text
         x="80.5"
         y="137"
         id="text8902"
         style="font-size:10px;fill:#000000;font-family:Times New Roman"
         font-size="10px">2</text>
    </g>
    <g
       transform="matrix(1.364137,0,0,1.406645,526.11006,-113.19034)"
       id="g8919"
       clip-path="url(#cp7)">
      <clipPath
         id="clipPath9231">
        <polygon
           points="87,126 73,126 73,126 73,140 87,140 "
           id="polygon8922" />
      </clipPath>
      <text
         x="74"
         y="137"
         id="text8924"
         style="font-size:10px;fill:#000000;font-family:SVGTimes"
         font-size="10px">-</text>
      <text
         x="80.5"
         y="137"
         id="text8926"
         style="font-size:10px;fill:#000000;font-family:Times New Roman"
         font-size="10px">1</text>
    </g>
    <g
       id="g8943"
       transform="matrix(1.364137,0,0,1.406645,367.74466,-113.15559)"
       clip-path="url(#cp9)">
      <clipPath
         id="clipPath9246">
        <polygon
           points="434,13 74,13 74,13 74,236 434,236 "
           id="polygon8946" />
      </clipPath>
      <polyline
         points="265,124 265,121.563 "
         id="polyline8948"
         style="fill:none;stroke:#000000;stroke-width:0.13535678px;stroke-opacity:1" />
      <polyline
         points="276.438,124 276.438,121.563 "
         id="polyline8950"
         style="fill:none;stroke:#000000;stroke-width:0.13535678px;stroke-opacity:1" />
      <polyline
         points="287.938,124 287.938,121.563 "
         id="polyline8952"
         style="fill:none;stroke:#000000;stroke-width:0.13535678px;stroke-opacity:1" />
      <polyline
         points="299.438,124 299.438,121.563 "
         id="polyline8954"
         style="fill:none;stroke:#000000;stroke-width:0.13535678px;stroke-opacity:1" />
      <polyline
         points="310.938,124 310.938,120 "
         id="polyline8956"
         style="fill:none;stroke:#000000;stroke-width:0.13535678px;stroke-opacity:1" />
    </g>
    <g
       transform="matrix(1.364137,0,0,1.406645,687.50929,-113.19034)"
       id="g8958"
       clip-path="url(#cp10)">
      <clipPath
         id="clipPath9255">
        <polygon
           points="80,126 73,126 73,126 73,140 80,140 "
           id="polygon8961" />
      </clipPath>
    </g>
    <g
       id="g8965"
       transform="matrix(1.364137,0,0,1.406645,367.74466,-113.15559)"
       clip-path="url(#cp11)">
      <clipPath
         id="clipPath9260">
        <polygon
           points="434,13 74,13 74,13 74,236 434,236 "
           id="polygon8968" />
      </clipPath>
      <polyline
         points="322.375,124 322.375,121.563 "
         id="polyline8970"
         style="fill:none;stroke:#000000;stroke-width:0.13535678px;stroke-opacity:1" />
      <polyline
         points="333.875,124 333.875,121.563 "
         id="polyline8972"
         style="fill:none;stroke:#000000;stroke-width:0.13535678px;stroke-opacity:1" />
      <polyline
         points="345.375,124 345.375,121.563 "
         id="polyline8974"
         style="fill:none;stroke:#000000;stroke-width:0.13535678px;stroke-opacity:1" />
      <polyline
         points="356.813,124 356.813,121.563 "
         id="polyline8976"
         style="fill:none;stroke:#000000;stroke-width:0.13535678px;stroke-opacity:1" />
      <polyline
         points="368.313,124 368.313,120 "
         id="polyline8978"
         style="fill:none;stroke:#000000;stroke-width:0.13535678px;stroke-opacity:1" />
    </g>
    <g
       id="g8987"
       transform="matrix(1.364137,0,0,1.406645,367.74466,-113.15559)"
       clip-path="url(#cp13)">
      <clipPath
         id="clipPath9274">
        <polygon
           points="434,13 74,13 74,13 74,236 434,236 "
           id="polygon8990" />
      </clipPath>
      <polyline
         points="379.813,124 379.813,121.563 "
         id="polyline8992"
         style="fill:none;stroke:#000000;stroke-width:0.13535678px;stroke-opacity:1" />
      <polyline
         points="391.25,124 391.25,121.563 "
         id="polyline8994"
         style="fill:none;stroke:#000000;stroke-width:0.13535678px;stroke-opacity:1" />
      <polyline
         points="402.75,124 402.75,121.563 "
         id="polyline8996"
         style="fill:none;stroke:#000000;stroke-width:0.13535678px;stroke-opacity:1" />
      <polyline
         points="414.25,124 414.25,121.563 "
         id="polyline8998"
         style="fill:none;stroke:#000000;stroke-width:0.13535678px;stroke-opacity:1" />
      <polyline
         points="425.75,124 425.75,120 "
         id="polyline9000"
         style="fill:none;stroke:#000000;stroke-width:0.13535678px;stroke-opacity:1" />
    </g>
    <g
       id="g9029"
       transform="matrix(1.364137,0,0,1.406645,367.74466,-113.15559)"
       clip-path="url(#cp17)">
      <clipPath
         id="clipPath9301">
        <polygon
           points="434,13 74,13 74,13 74,236 434,236 "
           id="polygon9032" />
      </clipPath>
      <polyline
         points="253.5,219.5 255.875,219.5 "
         id="polyline9034"
         style="fill:none;stroke:#000000;stroke-width:0.13535678px;stroke-opacity:1" />
      <polyline
         points="253.5,212.688 255.875,212.688 "
         id="polyline9036"
         style="fill:none;stroke:#000000;stroke-width:0.13535678px;stroke-opacity:1" />
      <polyline
         points="253.5,205.875 255.875,205.875 "
         id="polyline9038"
         style="fill:none;stroke:#000000;stroke-width:0.13535678px;stroke-opacity:1" />
      <polyline
         points="253.5,199 255.875,199 "
         id="polyline9040"
         style="fill:none;stroke:#000000;stroke-width:0.13535678px;stroke-opacity:1" />
      <polyline
         points="253.5,192.188 257.5,192.188 "
         id="polyline9042"
         style="fill:none;stroke:#000000;stroke-width:0.13535678px;stroke-opacity:1" />
    </g>
    <g
       id="g9053"
       transform="matrix(1.364137,0,0,1.406645,367.74466,-113.15559)"
       clip-path="url(#cp19)">
      <clipPath
         id="clipPath9316">
        <polygon
           points="434,13 74,13 74,13 74,236 434,236 "
           id="polygon9056" />
      </clipPath>
      <polyline
         points="253.5,185.375 255.875,185.375 "
         id="polyline9058"
         style="fill:none;stroke:#000000;stroke-width:0.13535678px;stroke-opacity:1" />
      <polyline
         points="253.5,178.563 255.875,178.563 "
         id="polyline9060"
         style="fill:none;stroke:#000000;stroke-width:0.13535678px;stroke-opacity:1" />
      <polyline
         points="253.5,171.75 255.875,171.75 "
         id="polyline9062"
         style="fill:none;stroke:#000000;stroke-width:0.13535678px;stroke-opacity:1" />
      <polyline
         points="253.5,164.938 255.875,164.938 "
         id="polyline9064"
         style="fill:none;stroke:#000000;stroke-width:0.13535678px;stroke-opacity:1" />
      <polyline
         points="253.5,158.063 257.5,158.063 "
         id="polyline9066"
         style="fill:none;stroke:#000000;stroke-width:0.13535678px;stroke-opacity:1" />
    </g>
    <g
       id="g9077"
       transform="matrix(1.364137,0,0,1.406645,367.74466,-113.15559)"
       clip-path="url(#cp21)">
      <clipPath
         id="clipPath9331">
        <polygon
           points="434,13 74,13 74,13 74,236 434,236 "
           id="polygon9080" />
      </clipPath>
      <polyline
         points="253.5,151.25 255.875,151.25 "
         id="polyline9082"
         style="fill:none;stroke:#000000;stroke-width:0.13535678px;stroke-opacity:1" />
      <polyline
         points="253.5,144.438 255.875,144.438 "
         id="polyline9084"
         style="fill:none;stroke:#000000;stroke-width:0.13535678px;stroke-opacity:1" />
      <polyline
         points="253.5,137.625 255.875,137.625 "
         id="polyline9086"
         style="fill:none;stroke:#000000;stroke-width:0.13535678px;stroke-opacity:1" />
      <polyline
         points="253.5,130.813 255.875,130.813 "
         id="polyline9088"
         style="fill:none;stroke:#000000;stroke-width:0.13535678px;stroke-opacity:1" />
      <polyline
         points="253.5,124 257.5,124 "
         id="polyline9090"
         style="fill:none;stroke:#000000;stroke-width:0.13535678px;stroke-opacity:1" />
    </g>
    <g
       id="g10133"
       transform="translate(1102.8613,-107.76985)"
       clip-path="url(#cp3)">
      <clipPath
         id="clipPath10481">
        <polygon
           points="434,13 74,13 74,13 74,236 434,236 "
           id="polygon10136" />
      </clipPath>
      <polyline
         points="83.9375,124 83.9375,121.563 "
         id="polyline10138"
         style="fill:none;stroke:#000000;stroke-width:0.1875px;stroke-opacity:1" />
      <polyline
         points="94.5,124 94.5,120 "
         id="polyline10140"
         style="fill:none;stroke:#000000;stroke-width:0.1875px;stroke-opacity:1" />
    </g>
    <g
       id="g10151"
       transform="translate(1102.8613,-107.76985)"
       clip-path="url(#cp5)">
      <clipPath
         id="clipPath10493">
        <polygon
           points="434,13 74,13 74,13 74,236 434,236 "
           id="polygon10154" />
      </clipPath>
      <polyline
         points="105.125,124 105.125,121.563 "
         id="polyline10156"
         style="fill:none;stroke:#000000;stroke-width:0.1875px;stroke-opacity:1" />
      <polyline
         points="115.75,124 115.75,121.563 "
         id="polyline10158"
         style="fill:none;stroke:#000000;stroke-width:0.1875px;stroke-opacity:1" />
      <polyline
         points="126.313,124 126.313,121.563 "
         id="polyline10160"
         style="fill:none;stroke:#000000;stroke-width:0.1875px;stroke-opacity:1" />
      <polyline
         points="136.938,124 136.938,121.563 "
         id="polyline10162"
         style="fill:none;stroke:#000000;stroke-width:0.1875px;stroke-opacity:1" />
      <polyline
         points="147.5,124 147.5,120 "
         id="polyline10164"
         style="fill:none;stroke:#000000;stroke-width:0.1875px;stroke-opacity:1" />
    </g>
    <g
       id="g10175"
       transform="translate(1102.8613,-107.76985)"
       clip-path="url(#cp7)">
      <clipPath
         id="clipPath10508">
        <polygon
           points="434,13 74,13 74,13 74,236 434,236 "
           id="polygon10178" />
      </clipPath>
      <polyline
         points="158.125,124 158.125,121.563 "
         id="polyline10180"
         style="fill:none;stroke:#000000;stroke-width:0.1875px;stroke-opacity:1" />
      <polyline
         points="168.688,124 168.688,121.563 "
         id="polyline10182"
         style="fill:none;stroke:#000000;stroke-width:0.1875px;stroke-opacity:1" />
      <polyline
         points="179.313,124 179.313,121.563 "
         id="polyline10184"
         style="fill:none;stroke:#000000;stroke-width:0.1875px;stroke-opacity:1" />
      <polyline
         points="189.938,124 189.938,121.563 "
         id="polyline10186"
         style="fill:none;stroke:#000000;stroke-width:0.1875px;stroke-opacity:1" />
      <polyline
         points="200.5,124 200.5,120 "
         id="polyline10188"
         style="fill:none;stroke:#000000;stroke-width:0.1875px;stroke-opacity:1" />
    </g>
    <g
       id="g10199"
       transform="translate(1102.8613,-107.76985)"
       clip-path="url(#cp9)">
      <clipPath
         id="clipPath10523">
        <polygon
           points="434,13 74,13 74,13 74,236 434,236 "
           id="polygon10202" />
      </clipPath>
      <polyline
         points="211.125,124 211.125,121.563 "
         id="polyline10204"
         style="fill:none;stroke:#000000;stroke-width:0.1875px;stroke-opacity:1" />
      <polyline
         points="221.688,124 221.688,121.563 "
         id="polyline10206"
         style="fill:none;stroke:#000000;stroke-width:0.1875px;stroke-opacity:1" />
      <polyline
         points="232.313,124 232.313,121.563 "
         id="polyline10208"
         style="fill:none;stroke:#000000;stroke-width:0.1875px;stroke-opacity:1" />
      <polyline
         points="242.875,124 242.875,121.563 "
         id="polyline10210"
         style="fill:none;stroke:#000000;stroke-width:0.1875px;stroke-opacity:1" />
      <polyline
         points="253.5,124 253.5,120 "
         id="polyline10212"
         style="fill:none;stroke:#000000;stroke-width:0.1875px;stroke-opacity:1" />
    </g>
    <g
       transform="translate(1332.8533,-107.79455)"
       id="g10229"
       clip-path="url(#cp11)">
      <clipPath
         id="clipPath10541">
        <polygon
           points="80,126 73,126 73,126 73,140 80,140 "
           id="polygon10232" />
      </clipPath>
      <text
         x="74"
         y="137"
         id="text10234"
         style="font-size:10px;fill:#000000;font-family:Times New Roman"
         font-size="10px">1</text>
    </g>
    <g
       transform="translate(1385.8453,-107.79455)"
       id="g10251"
       clip-path="url(#cp13)">
      <clipPath
         id="clipPath10555">
        <polygon
           points="80,126 73,126 73,126 73,140 80,140 "
           id="polygon10254" />
      </clipPath>
      <text
         x="74"
         y="137"
         id="text10256"
         style="font-size:10px;fill:#000000;font-family:Times New Roman"
         font-size="10px">2</text>
    </g>
    <g
       transform="translate(1438.8373,-107.79455)"
       id="g10273"
       clip-path="url(#cp15)">
      <clipPath
         id="clipPath10569">
        <polygon
           points="80,126 73,126 73,126 73,140 80,140 "
           id="polygon10276" />
      </clipPath>
      <text
         x="74"
         y="137"
         id="text10278"
         style="font-size:10px;fill:#000000;font-family:Times New Roman"
         font-size="10px">3</text>
    </g>
    <g
       transform="translate(1267.3613,-28.09431)"
       id="g10297"
       clip-path="url(#cp17)">
      <clipPath
         id="clipPath10584">
        <polygon
           points="87,126 73,126 73,126 73,140 87,140 "
           id="polygon10300" />
      </clipPath>
      <text
         x="74"
         y="137"
         id="text10302"
         style="font-size:10px;fill:#000000;font-family:SVGTimes"
         font-size="10px">-</text>
      <text
         x="80.5"
         y="137"
         id="text10304"
         style="font-size:10px;fill:#000000;font-family:Times New Roman"
         font-size="10px">3</text>
    </g>
    <g
       transform="translate(1267.3613,-57.66106)"
       id="g10321"
       clip-path="url(#cp19)">
      <clipPath
         id="clipPath10599">
        <polygon
           points="87,126 73,126 73,126 73,140 87,140 "
           id="polygon10324" />
      </clipPath>
      <text
         x="74"
         y="137"
         id="text10326"
         style="font-size:10px;fill:#000000;font-family:SVGTimes"
         font-size="10px">-</text>
      <text
         x="80.5"
         y="137"
         id="text10328"
         style="font-size:10px;fill:#000000;font-family:Times New Roman"
         font-size="10px">2</text>
    </g>
    <g
       transform="translate(1267.3613,-87.22781)"
       id="g10345"
       clip-path="url(#cp21)">
      <clipPath
         id="clipPath10614">
        <polygon
           points="87,126 73,126 73,126 73,140 87,140 "
           id="polygon10348" />
      </clipPath>
      <text
         x="74"
         y="137"
         id="text10350"
         style="font-size:10px;fill:#000000;font-family:SVGTimes"
         font-size="10px">-</text>
      <text
         x="80.5"
         y="137"
         id="text10352"
         style="font-size:10px;fill:#000000;font-family:Times New Roman"
         font-size="10px">1</text>
    </g>
    <path
       inkscape:connector-curvature="0"
       id="path2842"
       style="fill:none;stroke:#000000;stroke-width:1.40543449;stroke-linecap:butt;stroke-linejoin:miter;stroke-miterlimit:4;stroke-opacity:1;stroke-dasharray:none"
       d="m 248.68325,401.23854 c -22.48025,-1.14849 -32.68282,-10.91123 -41.6136,-20.05702 -11.32391,-11.59653 -19.75646,-23.04848 -29.94212,-23.04848 -10.18568,0 -18.61822,11.45195 -29.94213,23.04848 -8.93079,9.14579 -19.13335,18.90853 -41.61356,20.05702"
       sodipodi:nodetypes="csssc" />
    <path
       sodipodi:nodetypes="csssc"
       d="m 341.92738,401.23854 c -22.48025,-1.14849 -32.68282,-10.91123 -41.6136,-20.05702 -11.32391,-11.59653 -19.75646,-23.04848 -29.94212,-23.04848 -10.18568,0 -18.61822,11.45195 -29.94213,23.04848 -8.93079,9.14579 -19.13335,18.90853 -41.61356,20.05702"
       style="fill:none;stroke:#000000;stroke-width:1.40499997;stroke-linecap:butt;stroke-linejoin:miter;stroke-miterlimit:4;stroke-opacity:1;stroke-dasharray:1.405, 1.405;stroke-dashoffset:0"
       id="use6717"
       inkscape:connector-curvature="0" />
  </g>
</svg>
