<?xml version="1.0" encoding="UTF-8" standalone="no"?>
<!-- Created with Inkscape (http://www.inkscape.org/) -->

<svg
   xmlns:dc="http://purl.org/dc/elements/1.1/"
   xmlns:cc="http://creativecommons.org/ns#"
   xmlns:rdf="http://www.w3.org/1999/02/22-rdf-syntax-ns#"
   xmlns:svg="http://www.w3.org/2000/svg"
   xmlns="http://www.w3.org/2000/svg"
   xmlns:sodipodi="http://sodipodi.sourceforge.net/DTD/sodipodi-0.dtd"
   xmlns:inkscape="http://www.inkscape.org/namespaces/inkscape"
   width="246.4375"
   height="263.87762"
   id="svg2"
   version="1.1"
   inkscape:version="0.48.2 r9819"
   sodipodi:docname="partial_specializationsvg.svg">
  <defs
     id="defs4">
    <marker
       inkscape:stockid="Arrow2Mstart"
       orient="auto"
       refY="0"
       refX="0"
       id="Arrow2Mstart"
       style="overflow:visible">
      <path
         id="path3808"
         style="font-size:12px;fill-rule:evenodd;stroke-width:0.625;stroke-linejoin:round"
         d="M 8.7185878,4.0337352 -2.2072895,0.01601326 8.7185884,-4.0017078 c -1.7454984,2.3720609 -1.7354408,5.6174519 -6e-7,8.035443 z"
         transform="scale(0.6,0.6)"
         inkscape:connector-curvature="0" />
    </marker>
    <marker
       inkscape:stockid="Arrow2Mend"
       orient="auto"
       refY="0"
       refX="0"
       id="Arrow2Mend"
       style="overflow:visible">
      <path
         id="path3811"
         style="font-size:12px;fill-rule:evenodd;stroke-width:0.625;stroke-linejoin:round"
         d="M 8.7185878,4.0337352 -2.2072895,0.01601326 8.7185884,-4.0017078 c -1.7454984,2.3720609 -1.7354408,5.6174519 -6e-7,8.035443 z"
         transform="scale(-0.6,-0.6)"
         inkscape:connector-curvature="0" />
    </marker>
    <marker
       inkscape:stockid="Arrow1Send"
       orient="auto"
       refY="0"
       refX="0"
       id="Arrow1Send"
       style="overflow:visible">
      <path
         id="path3799"
         d="M 0,0 5,-5 -12.5,0 5,5 0,0 z"
         style="fill-rule:evenodd;stroke:#000000;stroke-width:1pt;marker-start:none"
         transform="matrix(-0.2,0,0,-0.2,-1.2,0)"
         inkscape:connector-curvature="0" />
    </marker>
    <marker
       inkscape:stockid="Arrow1Mend"
       orient="auto"
       refY="0"
       refX="0"
       id="Arrow1Mend"
       style="overflow:visible">
      <path
         id="path3793"
         d="M 0,0 5,-5 -12.5,0 5,5 0,0 z"
         style="fill-rule:evenodd;stroke:#000000;stroke-width:1pt;marker-start:none"
         transform="matrix(-0.4,0,0,-0.4,-4,0)"
         inkscape:connector-curvature="0" />
    </marker>
    <marker
       inkscape:stockid="Arrow2Lend"
       orient="auto"
       refY="0"
       refX="0"
       id="Arrow2Lend"
       style="overflow:visible">
      <path
         id="path3805"
         style="font-size:12px;fill-rule:evenodd;stroke-width:0.625;stroke-linejoin:round"
         d="M 8.7185878,4.0337352 -2.2072895,0.01601326 8.7185884,-4.0017078 c -1.7454984,2.3720609 -1.7354408,5.6174519 -6e-7,8.035443 z"
         transform="matrix(-1.1,0,0,-1.1,-1.1,0)"
         inkscape:connector-curvature="0" />
    </marker>
    <clipPath
       id="cp21">
      <polygon
         points="88,204 88,190 73,190 73,190 73,204 "
         id="polygon1999" />
    </clipPath>
    <clipPath
       id="cp19">
      <polygon
         points="88,204 88,190 73,190 73,190 73,204 "
         id="polygon1977" />
    </clipPath>
    <clipPath
       id="cp17">
      <polygon
         points="88,204 88,190 73,190 73,190 73,204 "
         id="polygon1955" />
    </clipPath>
    <clipPath
       id="cp15">
      <polygon
         points="95,204 95,190 74,190 74,190 74,204 "
         id="polygon1931" />
    </clipPath>
    <clipPath
       id="cp13">
      <polygon
         points="95,204 95,190 74,190 74,190 74,204 "
         id="polygon1907" />
    </clipPath>
    <clipPath
       id="cp11">
      <polygon
         points="88,203.563 88,190 73,190 73,190 73,203.563 "
         id="polygon1889" />
    </clipPath>
    <clipPath
       id="cp10">
      <polygon
         points="434,364 434,13 74,13 74,13 74,364 "
         id="polygon1874" />
    </clipPath>
    <clipPath
       id="cp9">
      <polygon
         points="88,203.563 88,190 73,190 73,190 73,203.563 "
         id="polygon1867" />
    </clipPath>
    <clipPath
       id="cp7">
      <polygon
         points="88,203.563 88,190 73,190 73,190 73,203.563 "
         id="polygon1845" />
    </clipPath>
    <clipPath
       id="cp5">
      <polygon
         points="95,203.563 95,190 73,190 73,190 73,203.563 "
         id="polygon1821" />
    </clipPath>
    <clipPath
       id="cp3">
      <polygon
         points="95,203.563 95,190 73,190 73,190 73,203.563 "
         id="polygon1797" />
    </clipPath>
    <inkscape:perspective
       id="perspective289"
       inkscape:persp3d-origin="360 : 153.33333 : 1"
       inkscape:vp_z="720 : 230 : 1"
       inkscape:vp_y="0 : 1000 : 0"
       inkscape:vp_x="0 : 230 : 1"
       sodipodi:type="inkscape:persp3d" />
  </defs>
  <sodipodi:namedview
     id="base"
     pagecolor="#ffffff"
     bordercolor="#666666"
     borderopacity="1.0"
     inkscape:pageopacity="0.0"
     inkscape:pageshadow="2"
     inkscape:zoom="0.98994949"
     inkscape:cx="188.81217"
     inkscape:cy="102.97157"
     inkscape:document-units="px"
     inkscape:current-layer="layer1"
     showgrid="false"
     fit-margin-top="5"
     fit-margin-left="5"
     fit-margin-right="5"
     fit-margin-bottom="5"
     units="px"
     inkscape:window-width="1276"
     inkscape:window-height="756"
     inkscape:window-x="4"
     inkscape:window-y="0"
     inkscape:window-maximized="1">
    <inkscape:grid
       type="xygrid"
       id="grid3777"
       empspacing="5"
       visible="true"
       enabled="true"
       snapvisiblegridlinesonly="true" />
  </sodipodi:namedview>
  <metadata
     id="metadata7">
    <rdf:RDF>
      <cc:Work
         rdf:about="">
        <dc:format>image/svg+xml</dc:format>
        <dc:type
           rdf:resource="http://purl.org/dc/dcmitype/StillImage" />
        <dc:title></dc:title>
      </cc:Work>
    </rdf:RDF>
  </metadata>
  <g
     inkscape:label="Layer 1"
     inkscape:groupmode="layer"
     id="layer1"
     transform="translate(-100.53125,-143.05987)">
    <g
       id="g5492"
       transform="translate(0,-34.315411)">
      <g
         id="g5452">
        <rect
           style="fill:none;stroke:#585858;stroke-width:3;stroke-linecap:butt;stroke-linejoin:miter;stroke-miterlimit:4;stroke-opacity:1;stroke-dasharray:none"
           id="rect2993"
           width="45.456863"
           height="43.436558"
           x="161.54729"
           y="271.77966"
           rx="5"
           ry="5" />
        <text
           xml:space="preserve"
           style="font-size:28px;font-style:normal;font-variant:normal;font-weight:normal;font-stretch:normal;line-height:125%;letter-spacing:0px;word-spacing:0px;fill:#000000;fill-opacity:1;stroke:none;font-family:Franklin Gothic Book;-inkscape-font-specification:Franklin Gothic Book"
           x="176.7767"
           y="302.82901"
           id="text2985"
           sodipodi:linespacing="125%"><tspan
             sodipodi:role="line"
             id="tspan2987"
             x="176.7767"
             y="302.82901">A</tspan></text>
      </g>
      <g
         transform="translate(-57.578695,171.72593)"
         id="g3767">
        <text
           xml:space="preserve"
           style="font-size:28px;font-style:normal;font-variant:normal;font-weight:normal;font-stretch:normal;line-height:125%;letter-spacing:0px;word-spacing:0px;fill:#000000;fill-opacity:1;stroke:none;font-family:Franklin Gothic Book;-inkscape-font-specification:Franklin Gothic Book"
           x="311.12698"
           y="131.10307"
           id="text2989"
           sodipodi:linespacing="125%"><tspan
             sodipodi:role="line"
             id="tspan2991"
             x="311.12698"
             y="131.10307">B</tspan></text>
        <rect
           ry="5"
           rx="5"
           y="100.05374"
           x="297.45618"
           height="43.436558"
           width="45.456863"
           id="use3763"
           style="fill:none;stroke:#585858;stroke-width:3;stroke-linecap:butt;stroke-linejoin:miter;stroke-miterlimit:4;stroke-opacity:1;stroke-dasharray:none" />
      </g>
    </g>
    <path
       style="fill:none;stroke:#000000;stroke-width:2;stroke-linecap:butt;stroke-linejoin:miter;stroke-miterlimit:4;stroke-opacity:1;stroke-dasharray:none;marker-end:url(#Arrow1Mend)"
       d="m 184.27571,199.33717 0,30.27752"
       id="path3779"
       inkscape:connector-curvature="0" />
    <g
       transform="translate(-1.0101525,49.497372)"
       id="use4413">
      <rect
         style="fill:none;stroke:#585858;stroke-width:3;stroke-linecap:butt;stroke-linejoin:miter;stroke-miterlimit:4;stroke-opacity:1;stroke-dasharray:none"
         id="rect4417"
         width="45.456863"
         height="43.436558"
         x="162.55743"
         y="100.05374"
         rx="5"
         ry="5" />
      <text
         xml:space="preserve"
         style="font-size:28px;font-style:normal;font-variant:normal;font-weight:normal;font-stretch:normal;line-height:125%;letter-spacing:0px;word-spacing:0px;fill:#000000;fill-opacity:1;stroke:none;font-family:Franklin Gothic Book;-inkscape-font-specification:Franklin Gothic Book"
         x="177.78685"
         y="131.10307"
         id="text4419"
         sodipodi:linespacing="125%"><tspan
           sodipodi:role="line"
           id="tspan4421"
           x="177.78685"
           y="131.10307">A</tspan></text>
    </g>
    <path
       sodipodi:type="arc"
       style="fill:none;stroke:#000000;stroke-width:1.71536875;stroke-linejoin:round;stroke-miterlimit:4;stroke-opacity:1;stroke-dasharray:5.14610616, 1.71536872;stroke-dashoffset:0;marker-start:url(#Arrow2Mstart);marker-end:none"
       id="path4807"
       sodipodi:cx="321.73358"
       sodipodi:cy="215.45081"
       sodipodi:rx="33.840111"
       sodipodi:ry="42.931484"
       d="m 287.89347,215.4508 c 0,-23.7104 15.15074,-42.93148 33.84011,-42.93148"
       sodipodi:start="3.1415927"
       sodipodi:end="4.712389"
       sodipodi:open="true"
       transform="matrix(1.1059189,0,0,1.2291977,-57.291785,-35.50942)" />
    <g
       style="font-size:18px;font-style:normal;font-variant:normal;font-weight:normal;font-stretch:normal;line-height:125%;letter-spacing:0px;word-spacing:0px;fill:#000000;fill-opacity:1;stroke:none;font-family:Franklin Gothic Book;-inkscape-font-specification:Franklin Gothic Book"
       id="text5377" />
    <text
       xml:space="preserve"
       style="font-size:28px;font-style:normal;font-variant:normal;font-weight:normal;font-stretch:normal;line-height:125%;letter-spacing:0px;word-spacing:0px;fill:#000000;fill-opacity:1;stroke:none;font-family:Franklin Gothic Book;-inkscape-font-specification:Franklin Gothic Book"
       x="169.62852"
       y="389.01685"
       id="text5397"
       sodipodi:linespacing="125%"><tspan
         sodipodi:role="line"
         id="tspan5399"
         x="169.62852"
         y="389.01685">A</tspan></text>
    <text
       sodipodi:linespacing="125%"
       id="text5427"
       y="389.01685"
       x="261.31406"
       style="font-size:28px;font-style:normal;font-variant:normal;font-weight:normal;font-stretch:normal;line-height:125%;letter-spacing:0px;word-spacing:0px;fill:#000000;fill-opacity:1;stroke:none;font-family:Franklin Gothic Book;-inkscape-font-specification:Franklin Gothic Book"
       xml:space="preserve"><tspan
         y="389.01685"
         x="261.31406"
         id="tspan5429"
         sodipodi:role="line">B</tspan></text>
    <path
       inkscape:connector-curvature="0"
       id="use5512"
       d="m 184.27571,287.25025 -8.08122,63.61255"
       style="fill:none;stroke:#000000;stroke-width:2;stroke-linecap:butt;stroke-linejoin:miter;stroke-miterlimit:4;stroke-opacity:1;stroke-dasharray:none;marker-end:url(#Arrow1Mend)"
       sodipodi:nodetypes="cc" />
    <path
       sodipodi:nodetypes="cc"
       style="fill:none;stroke:#000000;stroke-width:2;stroke-linecap:butt;stroke-linejoin:miter;stroke-miterlimit:4;stroke-opacity:1;stroke-dasharray:none;marker-end:url(#Arrow1Mend)"
       d="m 264.27571,287.25025 8.08122,63.61255"
       id="use5516"
       inkscape:connector-curvature="0" />
    <g
       clip-path="url(#cp3)"
       id="g8871"
       transform="matrix(1.364137,0,0,1.406645,369.4853,-113.19034)">
      <clipPath
         id="clipPath9201">
        <polygon
           id="polygon8874"
           points="87,126 73,126 73,126 73,140 87,140 " />
      </clipPath>
      <text
         font-size="10px"
         style="font-size:10px;fill:#000000;font-family:SVGTimes"
         id="text8876"
         y="137"
         x="74">-</text>
      <text
         font-size="10px"
         style="font-size:10px;fill:#000000;font-family:Times New Roman"
         id="text8878"
         y="137"
         x="80.5">3</text>
    </g>
    <g
       clip-path="url(#cp5)"
       id="g8895"
       transform="matrix(1.364137,0,0,1.406645,447.79768,-113.19034)">
      <clipPath
         id="clipPath9216">
        <polygon
           id="polygon8898"
           points="87,126 73,126 73,126 73,140 87,140 " />
      </clipPath>
      <text
         font-size="10px"
         style="font-size:10px;fill:#000000;font-family:SVGTimes"
         id="text8900"
         y="137"
         x="74">-</text>
      <text
         font-size="10px"
         style="font-size:10px;fill:#000000;font-family:Times New Roman"
         id="text8902"
         y="137"
         x="80.5">2</text>
    </g>
    <g
       clip-path="url(#cp7)"
       id="g8919"
       transform="matrix(1.364137,0,0,1.406645,526.11006,-113.19034)">
      <clipPath
         id="clipPath9231">
        <polygon
           id="polygon8922"
           points="87,126 73,126 73,126 73,140 87,140 " />
      </clipPath>
      <text
         font-size="10px"
         style="font-size:10px;fill:#000000;font-family:SVGTimes"
         id="text8924"
         y="137"
         x="74">-</text>
      <text
         font-size="10px"
         style="font-size:10px;fill:#000000;font-family:Times New Roman"
         id="text8926"
         y="137"
         x="80.5">1</text>
    </g>
    <g
       clip-path="url(#cp9)"
       transform="matrix(1.364137,0,0,1.406645,367.74466,-113.15559)"
       id="g8943">
      <clipPath
         id="clipPath9246">
        <polygon
           id="polygon8946"
           points="434,13 74,13 74,13 74,236 434,236 " />
      </clipPath>
      <polyline
         style="fill:none;stroke:#000000;stroke-width:0.13535678px;stroke-opacity:1"
         id="polyline8948"
         points="265,124 265,121.563 " />
      <polyline
         style="fill:none;stroke:#000000;stroke-width:0.13535678px;stroke-opacity:1"
         id="polyline8950"
         points="276.438,124 276.438,121.563 " />
      <polyline
         style="fill:none;stroke:#000000;stroke-width:0.13535678px;stroke-opacity:1"
         id="polyline8952"
         points="287.938,124 287.938,121.563 " />
      <polyline
         style="fill:none;stroke:#000000;stroke-width:0.13535678px;stroke-opacity:1"
         id="polyline8954"
         points="299.438,124 299.438,121.563 " />
      <polyline
         style="fill:none;stroke:#000000;stroke-width:0.13535678px;stroke-opacity:1"
         id="polyline8956"
         points="310.938,124 310.938,120 " />
    </g>
    <g
       clip-path="url(#cp10)"
       id="g8958"
       transform="matrix(1.364137,0,0,1.406645,687.50929,-113.19034)">
      <clipPath
         id="clipPath9255">
        <polygon
           id="polygon8961"
           points="80,126 73,126 73,126 73,140 80,140 " />
      </clipPath>
    </g>
    <g
       clip-path="url(#cp11)"
       transform="matrix(1.364137,0,0,1.406645,367.74466,-113.15559)"
       id="g8965">
      <clipPath
         id="clipPath9260">
        <polygon
           id="polygon8968"
           points="434,13 74,13 74,13 74,236 434,236 " />
      </clipPath>
      <polyline
         style="fill:none;stroke:#000000;stroke-width:0.13535678px;stroke-opacity:1"
         id="polyline8970"
         points="322.375,124 322.375,121.563 " />
      <polyline
         style="fill:none;stroke:#000000;stroke-width:0.13535678px;stroke-opacity:1"
         id="polyline8972"
         points="333.875,124 333.875,121.563 " />
      <polyline
         style="fill:none;stroke:#000000;stroke-width:0.13535678px;stroke-opacity:1"
         id="polyline8974"
         points="345.375,124 345.375,121.563 " />
      <polyline
         style="fill:none;stroke:#000000;stroke-width:0.13535678px;stroke-opacity:1"
         id="polyline8976"
         points="356.813,124 356.813,121.563 " />
      <polyline
         style="fill:none;stroke:#000000;stroke-width:0.13535678px;stroke-opacity:1"
         id="polyline8978"
         points="368.313,124 368.313,120 " />
    </g>
    <g
       clip-path="url(#cp13)"
       transform="matrix(1.364137,0,0,1.406645,367.74466,-113.15559)"
       id="g8987">
      <clipPath
         id="clipPath9274">
        <polygon
           id="polygon8990"
           points="434,13 74,13 74,13 74,236 434,236 " />
      </clipPath>
      <polyline
         style="fill:none;stroke:#000000;stroke-width:0.13535678px;stroke-opacity:1"
         id="polyline8992"
         points="379.813,124 379.813,121.563 " />
      <polyline
         style="fill:none;stroke:#000000;stroke-width:0.13535678px;stroke-opacity:1"
         id="polyline8994"
         points="391.25,124 391.25,121.563 " />
      <polyline
         style="fill:none;stroke:#000000;stroke-width:0.13535678px;stroke-opacity:1"
         id="polyline8996"
         points="402.75,124 402.75,121.563 " />
      <polyline
         style="fill:none;stroke:#000000;stroke-width:0.13535678px;stroke-opacity:1"
         id="polyline8998"
         points="414.25,124 414.25,121.563 " />
      <polyline
         style="fill:none;stroke:#000000;stroke-width:0.13535678px;stroke-opacity:1"
         id="polyline9000"
         points="425.75,124 425.75,120 " />
    </g>
    <g
       clip-path="url(#cp17)"
       transform="matrix(1.364137,0,0,1.406645,367.74466,-113.15559)"
       id="g9029">
      <clipPath
         id="clipPath9301">
        <polygon
           id="polygon9032"
           points="434,13 74,13 74,13 74,236 434,236 " />
      </clipPath>
      <polyline
         style="fill:none;stroke:#000000;stroke-width:0.13535678px;stroke-opacity:1"
         id="polyline9034"
         points="253.5,219.5 255.875,219.5 " />
      <polyline
         style="fill:none;stroke:#000000;stroke-width:0.13535678px;stroke-opacity:1"
         id="polyline9036"
         points="253.5,212.688 255.875,212.688 " />
      <polyline
         style="fill:none;stroke:#000000;stroke-width:0.13535678px;stroke-opacity:1"
         id="polyline9038"
         points="253.5,205.875 255.875,205.875 " />
      <polyline
         style="fill:none;stroke:#000000;stroke-width:0.13535678px;stroke-opacity:1"
         id="polyline9040"
         points="253.5,199 255.875,199 " />
      <polyline
         style="fill:none;stroke:#000000;stroke-width:0.13535678px;stroke-opacity:1"
         id="polyline9042"
         points="253.5,192.188 257.5,192.188 " />
    </g>
    <g
       clip-path="url(#cp19)"
       transform="matrix(1.364137,0,0,1.406645,367.74466,-113.15559)"
       id="g9053">
      <clipPath
         id="clipPath9316">
        <polygon
           id="polygon9056"
           points="434,13 74,13 74,13 74,236 434,236 " />
      </clipPath>
      <polyline
         style="fill:none;stroke:#000000;stroke-width:0.13535678px;stroke-opacity:1"
         id="polyline9058"
         points="253.5,185.375 255.875,185.375 " />
      <polyline
         style="fill:none;stroke:#000000;stroke-width:0.13535678px;stroke-opacity:1"
         id="polyline9060"
         points="253.5,178.563 255.875,178.563 " />
      <polyline
         style="fill:none;stroke:#000000;stroke-width:0.13535678px;stroke-opacity:1"
         id="polyline9062"
         points="253.5,171.75 255.875,171.75 " />
      <polyline
         style="fill:none;stroke:#000000;stroke-width:0.13535678px;stroke-opacity:1"
         id="polyline9064"
         points="253.5,164.938 255.875,164.938 " />
      <polyline
         style="fill:none;stroke:#000000;stroke-width:0.13535678px;stroke-opacity:1"
         id="polyline9066"
         points="253.5,158.063 257.5,158.063 " />
    </g>
    <g
       clip-path="url(#cp21)"
       transform="matrix(1.364137,0,0,1.406645,367.74466,-113.15559)"
       id="g9077">
      <clipPath
         id="clipPath9331">
        <polygon
           id="polygon9080"
           points="434,13 74,13 74,13 74,236 434,236 " />
      </clipPath>
      <polyline
         style="fill:none;stroke:#000000;stroke-width:0.13535678px;stroke-opacity:1"
         id="polyline9082"
         points="253.5,151.25 255.875,151.25 " />
      <polyline
         style="fill:none;stroke:#000000;stroke-width:0.13535678px;stroke-opacity:1"
         id="polyline9084"
         points="253.5,144.438 255.875,144.438 " />
      <polyline
         style="fill:none;stroke:#000000;stroke-width:0.13535678px;stroke-opacity:1"
         id="polyline9086"
         points="253.5,137.625 255.875,137.625 " />
      <polyline
         style="fill:none;stroke:#000000;stroke-width:0.13535678px;stroke-opacity:1"
         id="polyline9088"
         points="253.5,130.813 255.875,130.813 " />
      <polyline
         style="fill:none;stroke:#000000;stroke-width:0.13535678px;stroke-opacity:1"
         id="polyline9090"
         points="253.5,124 257.5,124 " />
    </g>
    <g
       clip-path="url(#cp3)"
       transform="translate(1102.8613,-107.76985)"
       id="g10133">
      <clipPath
         id="clipPath10481">
        <polygon
           id="polygon10136"
           points="434,13 74,13 74,13 74,236 434,236 " />
      </clipPath>
      <polyline
         style="fill:none;stroke:#000000;stroke-width:0.1875px;stroke-opacity:1"
         id="polyline10138"
         points="83.9375,124 83.9375,121.563 " />
      <polyline
         style="fill:none;stroke:#000000;stroke-width:0.1875px;stroke-opacity:1"
         id="polyline10140"
         points="94.5,124 94.5,120 " />
    </g>
    <g
       clip-path="url(#cp5)"
       transform="translate(1102.8613,-107.76985)"
       id="g10151">
      <clipPath
         id="clipPath10493">
        <polygon
           id="polygon10154"
           points="434,13 74,13 74,13 74,236 434,236 " />
      </clipPath>
      <polyline
         style="fill:none;stroke:#000000;stroke-width:0.1875px;stroke-opacity:1"
         id="polyline10156"
         points="105.125,124 105.125,121.563 " />
      <polyline
         style="fill:none;stroke:#000000;stroke-width:0.1875px;stroke-opacity:1"
         id="polyline10158"
         points="115.75,124 115.75,121.563 " />
      <polyline
         style="fill:none;stroke:#000000;stroke-width:0.1875px;stroke-opacity:1"
         id="polyline10160"
         points="126.313,124 126.313,121.563 " />
      <polyline
         style="fill:none;stroke:#000000;stroke-width:0.1875px;stroke-opacity:1"
         id="polyline10162"
         points="136.938,124 136.938,121.563 " />
      <polyline
         style="fill:none;stroke:#000000;stroke-width:0.1875px;stroke-opacity:1"
         id="polyline10164"
         points="147.5,124 147.5,120 " />
    </g>
    <g
       clip-path="url(#cp7)"
       transform="translate(1102.8613,-107.76985)"
       id="g10175">
      <clipPath
         id="clipPath10508">
        <polygon
           id="polygon10178"
           points="434,13 74,13 74,13 74,236 434,236 " />
      </clipPath>
      <polyline
         style="fill:none;stroke:#000000;stroke-width:0.1875px;stroke-opacity:1"
         id="polyline10180"
         points="158.125,124 158.125,121.563 " />
      <polyline
         style="fill:none;stroke:#000000;stroke-width:0.1875px;stroke-opacity:1"
         id="polyline10182"
         points="168.688,124 168.688,121.563 " />
      <polyline
         style="fill:none;stroke:#000000;stroke-width:0.1875px;stroke-opacity:1"
         id="polyline10184"
         points="179.313,124 179.313,121.563 " />
      <polyline
         style="fill:none;stroke:#000000;stroke-width:0.1875px;stroke-opacity:1"
         id="polyline10186"
         points="189.938,124 189.938,121.563 " />
      <polyline
         style="fill:none;stroke:#000000;stroke-width:0.1875px;stroke-opacity:1"
         id="polyline10188"
         points="200.5,124 200.5,120 " />
    </g>
    <g
       clip-path="url(#cp9)"
       transform="translate(1102.8613,-107.76985)"
       id="g10199">
      <clipPath
         id="clipPath10523">
        <polygon
           id="polygon10202"
           points="434,13 74,13 74,13 74,236 434,236 " />
      </clipPath>
      <polyline
         style="fill:none;stroke:#000000;stroke-width:0.1875px;stroke-opacity:1"
         id="polyline10204"
         points="211.125,124 211.125,121.563 " />
      <polyline
         style="fill:none;stroke:#000000;stroke-width:0.1875px;stroke-opacity:1"
         id="polyline10206"
         points="221.688,124 221.688,121.563 " />
      <polyline
         style="fill:none;stroke:#000000;stroke-width:0.1875px;stroke-opacity:1"
         id="polyline10208"
         points="232.313,124 232.313,121.563 " />
      <polyline
         style="fill:none;stroke:#000000;stroke-width:0.1875px;stroke-opacity:1"
         id="polyline10210"
         points="242.875,124 242.875,121.563 " />
      <polyline
         style="fill:none;stroke:#000000;stroke-width:0.1875px;stroke-opacity:1"
         id="polyline10212"
         points="253.5,124 253.5,120 " />
    </g>
    <g
       clip-path="url(#cp11)"
       id="g10229"
       transform="translate(1332.8533,-107.79455)">
      <clipPath
         id="clipPath10541">
        <polygon
           id="polygon10232"
           points="80,126 73,126 73,126 73,140 80,140 " />
      </clipPath>
      <text
         font-size="10px"
         style="font-size:10px;fill:#000000;font-family:Times New Roman"
         id="text10234"
         y="137"
         x="74">1</text>
    </g>
    <g
       clip-path="url(#cp13)"
       id="g10251"
       transform="translate(1385.8453,-107.79455)">
      <clipPath
         id="clipPath10555">
        <polygon
           id="polygon10254"
           points="80,126 73,126 73,126 73,140 80,140 " />
      </clipPath>
      <text
         font-size="10px"
         style="font-size:10px;fill:#000000;font-family:Times New Roman"
         id="text10256"
         y="137"
         x="74">2</text>
    </g>
    <g
       clip-path="url(#cp15)"
       id="g10273"
       transform="translate(1438.8373,-107.79455)">
      <clipPath
         id="clipPath10569">
        <polygon
           id="polygon10276"
           points="80,126 73,126 73,126 73,140 80,140 " />
      </clipPath>
      <text
         font-size="10px"
         style="font-size:10px;fill:#000000;font-family:Times New Roman"
         id="text10278"
         y="137"
         x="74">3</text>
    </g>
    <g
       clip-path="url(#cp17)"
       id="g10297"
       transform="translate(1267.3613,-28.09431)">
      <clipPath
         id="clipPath10584">
        <polygon
           id="polygon10300"
           points="87,126 73,126 73,126 73,140 87,140 " />
      </clipPath>
      <text
         font-size="10px"
         style="font-size:10px;fill:#000000;font-family:SVGTimes"
         id="text10302"
         y="137"
         x="74">-</text>
      <text
         font-size="10px"
         style="font-size:10px;fill:#000000;font-family:Times New Roman"
         id="text10304"
         y="137"
         x="80.5">3</text>
    </g>
    <g
       clip-path="url(#cp19)"
       id="g10321"
       transform="translate(1267.3613,-57.66106)">
      <clipPath
         id="clipPath10599">
        <polygon
           id="polygon10324"
           points="87,126 73,126 73,126 73,140 87,140 " />
      </clipPath>
      <text
         font-size="10px"
         style="font-size:10px;fill:#000000;font-family:SVGTimes"
         id="text10326"
         y="137"
         x="74">-</text>
      <text
         font-size="10px"
         style="font-size:10px;fill:#000000;font-family:Times New Roman"
         id="text10328"
         y="137"
         x="80.5">2</text>
    </g>
    <g
       clip-path="url(#cp21)"
       id="g10345"
       transform="translate(1267.3613,-87.22781)">
      <clipPath
         id="clipPath10614">
        <polygon
           id="polygon10348"
           points="87,126 73,126 73,126 73,140 87,140 " />
      </clipPath>
      <text
         font-size="10px"
         style="font-size:10px;fill:#000000;font-family:SVGTimes"
         id="text10350"
         y="137"
         x="74">-</text>
      <text
         font-size="10px"
         style="font-size:10px;fill:#000000;font-family:Times New Roman"
         id="text10352"
         y="137"
         x="80.5">1</text>
    </g>
    <path
       sodipodi:nodetypes="csssc"
       d="m 248.68325,401.23854 c -22.48025,-1.14849 -32.68282,-10.91123 -41.6136,-20.05702 -11.32391,-11.59653 -19.75646,-23.04848 -29.94212,-23.04848 -10.18568,0 -18.61822,11.45195 -29.94213,23.04848 -8.93079,9.14579 -19.13335,18.90853 -41.61356,20.05702"
       style="fill:none;stroke:#000000;stroke-width:1.40543449;stroke-linecap:butt;stroke-linejoin:miter;stroke-miterlimit:4;stroke-opacity:1;stroke-dasharray:none"
       id="path2842"
       inkscape:connector-curvature="0" />
    <path
       inkscape:connector-curvature="0"
       id="use6717"
       style="fill:none;stroke:#000000;stroke-width:1.40499997;stroke-linecap:butt;stroke-linejoin:miter;stroke-miterlimit:4;stroke-opacity:1;stroke-dasharray:1.405, 1.405;stroke-dashoffset:0"
       d="m 341.92738,401.23854 c -22.48025,-1.14849 -32.68282,-10.91123 -41.6136,-20.05702 -11.32391,-11.59653 -19.75646,-23.04848 -29.94212,-23.04848 -10.18568,0 -18.61822,11.45195 -29.94213,23.04848 -8.93079,9.14579 -19.13335,18.90853 -41.61356,20.05702"
       sodipodi:nodetypes="csssc" />
  </g>
</svg>
